HIERARCHY
ROOT joint_Root
{
	OFFSET 0.0 0.0 0.0
	CHANNELS 6 Xposition Yposition Zposition Zrotation Xrotation Yrotation 
	JOINT Hips
	{
		OFFSET 4.5925 91.4895 -427.239
		CHANNELS 6 Xposition Yposition Zposition Zrotation Xrotation Yrotation 
		JOINT Spine
		{
			OFFSET 15.7357 0.0 0.0
			CHANNELS 6 Xposition Yposition Zposition Zrotation Xrotation Yrotation 
			JOINT Chest
			{
				OFFSET 8.98455 -0.406207 0.0
				CHANNELS 6 Xposition Yposition Zposition Zrotation Xrotation Yrotation 
				JOINT Neck
				{
					OFFSET 16.3773 0.0 0.0
					CHANNELS 6 Xposition Yposition Zposition Zrotation Xrotation Yrotation 
					JOINT Head
					{
						OFFSET 6.45672 0.0 0.0
						CHANNELS 6 Xposition Yposition Zposition Zrotation Xrotation Yrotation 
						End Site
						{
							OFFSET 0.0 0.0 0.0
						}
					}
				}
				JOINT Shoulder_L
				{
					OFFSET 12.9942 -0.242716 4.98039
					CHANNELS 6 Xposition Yposition Zposition Zrotation Xrotation Yrotation 
					JOINT UpperArm_L
					{
						OFFSET 5.34809 0.0 0.0
						CHANNELS 6 Xposition Yposition Zposition Zrotation Xrotation Yrotation 
						JOINT LowerArm_L
						{
							OFFSET 24.3286 1.87007e-05 0.0
							CHANNELS 6 Xposition Yposition Zposition Zrotation Xrotation Yrotation 
							JOINT Hand_L
							{
								OFFSET 22.2916 0.0 0.0
								CHANNELS 6 Xposition Yposition Zposition Zrotation Xrotation Yrotation 
								End Site
								{
									OFFSET 0.0 0.0 0.0
								}
							}
						}
					}
				}
				JOINT Shoulder_R
				{
					OFFSET 12.9945 -0.242716 -4.98039
					CHANNELS 6 Xposition Yposition Zposition Zrotation Xrotation Yrotation 
					JOINT UpperArm_R
					{
						OFFSET -5.34813 0.0 0.0
						CHANNELS 6 Xposition Yposition Zposition Zrotation Xrotation Yrotation 
						JOINT LowerArm_R
						{
							OFFSET -24.3289 0.000322201 0.0
							CHANNELS 6 Xposition Yposition Zposition Zrotation Xrotation Yrotation 
							JOINT Hand_R
							{
								OFFSET -22.2915 -0.000108084 0.0
								CHANNELS 6 Xposition Yposition Zposition Zrotation Xrotation Yrotation 
								End Site
								{
									OFFSET 0.0 0.0 0.0
								}
							}
						}
					}
				}
			}
		}
		JOINT UpperLeg_L
		{
			OFFSET -2.19248 -6.46944 0.0
			CHANNELS 6 Xposition Yposition Zposition Zrotation Xrotation Yrotation 
			JOINT LowerLeg_L
			{
				OFFSET 39.0811 0.0 -1.23785e-05
				CHANNELS 6 Xposition Yposition Zposition Zrotation Xrotation Yrotation 
				JOINT Foot_L
				{
					OFFSET 40.9854 0.0 -1.26872e-05
					CHANNELS 6 Xposition Yposition Zposition Zrotation Xrotation Yrotation 
					JOINT Toes_L
					{
						OFFSET 11.7543 0.0 0.0
						CHANNELS 6 Xposition Yposition Zposition Zrotation Xrotation Yrotation 
						End Site
						{
							OFFSET 0.0 0.0 0.0
						}
					}
				}
			}
		}
		JOINT UpperLeg_R
		{
			OFFSET -2.19251 6.46944 0.0
			CHANNELS 6 Xposition Yposition Zposition Zrotation Xrotation Yrotation 
			JOINT LowerLeg_R
			{
				OFFSET -39.0811 -0.00228153 -0.0401928
				CHANNELS 6 Xposition Yposition Zposition Zrotation Xrotation Yrotation 
				JOINT Foot_R
				{
					OFFSET -40.9854 0.0 0.0
					CHANNELS 6 Xposition Yposition Zposition Zrotation Xrotation Yrotation 
					JOINT Toes_R
					{
						OFFSET -11.7543 0.0 0.0
						CHANNELS 6 Xposition Yposition Zposition Zrotation Xrotation Yrotation 
						End Site
						{
							OFFSET 0.0 0.0 0.0
						}
					}
				}
			}
		}
	}
}
MOTION
Frames:	5
Frame Time:	0.0333333
0.000000 0.000000 0.000000 0.000000 0.000000 -0.000000 -5.793200 91.212400 0.544609 89.190700 9.961120 4.856510 15.735700 0.000005 -0.000001 89.143600 85.271100 -93.872300 8.984550 -0.406207 -0.000000 1.712700 0.107850 -9.450300 16.377300 -0.000001 -0.000001 8.640940 -4.475410 4.889750 6.456720 -0.000001 -0.000000 -3.227510 -1.212920 -2.292360 12.994200 -0.242716 4.980390 -91.198800 3.130320 -69.032200 5.348090 -0.000007 -0.000001 -60.719700 7.866610 -6.408480 24.328600 0.000019 0.000005 6.871830 17.441600 -21.903500 22.291600 -0.000001 0.000005 13.985700 5.152880 3.874360 12.994500 -0.242716 -4.980390 94.307200 -10.251900 -67.062600 -5.348130 -0.000001 -0.000004 -47.701100 -66.023300 -92.580300 -24.328900 0.000322 -0.000009 -3.519810 -3.983440 -41.513700 -22.291500 -0.000108 -0.000004 19.002400 5.536990 -8.106320 -2.192480 -6.469440 -0.000000 -171.976000 -5.726130 -6.179200 39.081100 -0.000007 -0.000012 -0.185491 0.358324 27.369100 40.985400 -0.000006 -0.000013 -2.409830 12.394000 -66.660900 11.754300 -0.000000 0.000003 -0.000124 -0.001235 -16.624700 -2.192510 6.469440 -0.000001 179.711000 26.777000 179.144000 -39.081100 -0.002282 -0.040193 -0.017787 0.043255 26.000400 -40.985400 0.000008 0.000006 8.450950 8.056690 -71.751800 -11.754300 -0.000006 -0.000006 -0.003301 -0.043964 -18.361200
0.000000 0.000000 0.000000 0.000000 0.000000 -0.000000 -5.710530 91.224500 0.502687 89.208400 9.819820 4.921930 15.735700 0.000005 -0.000001 88.677900 85.238900 -93.312800 8.984550 -0.406207 -0.000000 1.771350 0.022265 -9.261450 16.377300 -0.000001 -0.000001 8.646410 -4.385270 4.545290 6.456720 -0.000001 -0.000000 -3.261430 -1.046400 -2.461290 12.994200 -0.242716 4.980390 -91.106900 2.872960 -68.919000 5.348090 -0.000007 -0.000001 -60.912600 8.140580 -7.008530 24.328600 0.000019 0.000005 7.096490 17.374100 -22.631800 22.291600 -0.000001 0.000005 14.120600 5.156690 3.782780 12.994500 -0.242716 -4.980390 94.353800 -10.305900 -66.947200 -5.348130 -0.000001 -0.000004 -47.009700 -65.901500 -92.176400 -24.328900 0.000322 -0.000009 -3.556520 -4.066210 -41.225900 -22.291500 -0.000108 -0.000004 18.783800 5.534980 -8.015950 -2.192480 -6.469440 -0.000000 -172.052000 -5.788440 -6.086940 39.081100 -0.000007 -0.000012 -0.182602 0.353067 27.347700 40.985400 -0.000006 -0.000013 -2.362200 12.307700 -66.654900 11.754300 -0.000000 0.000003 -0.000121 -0.001206 -16.623700 -2.192510 6.469440 -0.000001 179.638000 26.568600 179.174000 -39.081100 -0.002282 -0.040193 -0.016810 0.041236 26.009400 -40.985400 0.000008 0.000006 8.404140 8.017390 -71.696400 -11.754300 -0.000006 -0.000006 -0.003246 -0.043351 -18.336200
0.000000 0.000000 0.000000 0.000000 0.000000 -0.000000 -5.610430 91.232200 0.475171 89.225700 9.610770 4.957900 15.735700 0.000005 -0.000001 88.400400 85.224700 -92.932700 8.984550 -0.406207 -0.000000 1.795750 -0.030899 -9.055660 16.377300 -0.000001 -0.000001 8.715020 -4.290450 4.254940 6.456720 -0.000001 -0.000000 -3.298220 -0.912544 -2.671540 12.994200 -0.242716 4.980390 -91.038300 2.689630 -68.882500 5.348090 -0.000007 -0.000001 -61.045900 8.267420 -7.455210 24.328600 0.000019 0.000005 7.285980 17.181600 -23.403600 22.291600 -0.000001 0.000005 14.184700 5.151490 3.907550 12.994500 -0.242716 -4.980390 94.384100 -10.349700 -66.890000 -5.348130 -0.000001 -0.000004 -45.919300 -65.838200 -91.355800 -24.328900 0.000322 -0.000009 -3.444450 -3.973960 -40.964800 -22.291500 -0.000108 -0.000004 18.484500 5.531320 -7.853580 -2.192480 -6.469440 -0.000000 -172.131000 -5.898610 -6.008730 39.081100 -0.000007 -0.000012 -0.182649 0.353118 27.350400 40.985400 -0.000006 -0.000013 -2.307070 12.199800 -66.682600 11.754300 -0.000000 0.000003 -0.000127 -0.001257 -16.625500 -2.192510 6.469440 -0.000001 179.554000 26.313300 179.177000 -39.081100 -0.002282 -0.040193 -0.018854 0.045371 26.036300 -40.985400 0.000008 0.000006 8.269460 8.026150 -71.643200 -11.754300 -0.000006 -0.000006 -0.003323 -0.044209 -18.371100
0.000000 0.000000 0.000000 0.000000 0.000000 -0.000000 -5.482350 91.249500 0.446890 89.266800 9.300380 4.967910 15.735700 0.000005 -0.000001 88.306000 85.217300 -92.737700 8.984550 -0.406207 -0.000000 1.808570 -0.052756 -8.854440 16.377300 -0.000001 -0.000001 8.758720 -4.275530 4.144440 6.456720 -0.000001 -0.000000 -3.329660 -0.819755 -2.924300 12.994200 -0.242716 4.980390 -91.056000 2.724560 -68.805100 5.348090 -0.000007 -0.000001 -60.855200 8.561030 -7.869080 24.328600 0.000019 0.000005 7.365890 16.895400 -23.979700 22.291600 -0.000001 0.000005 14.240000 5.153900 3.849870 12.994500 -0.242716 -4.980390 94.372700 -10.307200 -66.859900 -5.348130 -0.000001 -0.000004 -45.168200 -65.734900 -90.703800 -24.328900 0.000322 -0.000009 -3.410980 -3.928170 -41.015400 -22.291500 -0.000108 -0.000004 18.129800 5.530130 -7.800960 -2.192480 -6.469440 -0.000000 -172.254000 -6.104320 -5.900970 39.081100 -0.000007 -0.000012 -0.180121 0.349010 27.298100 40.985400 -0.000006 -0.000013 -2.235290 12.065400 -66.695600 11.754300 -0.000000 0.000003 -0.000137 -0.001345 -16.628800 -2.192510 6.469440 -0.000001 179.429000 26.028100 179.154000 -39.081100 -0.002282 -0.040193 -0.022766 0.053352 26.047100 -40.985400 0.000008 0.000006 8.140820 8.137430 -71.572000 -11.754300 -0.000006 -0.000006 -0.003159 -0.042394 -18.297200
0.000000 0.000000 0.000000 0.000000 0.000000 -0.000000 -5.335150 91.271900 0.406706 89.324100 8.940060 4.933010 15.735700 0.000005 -0.000001 88.121100 85.227000 -92.452500 8.984550 -0.406207 -0.000000 1.786330 -0.087286 -8.653260 16.377300 -0.000001 -0.000001 8.790470 -4.248810 4.138150 6.456720 -0.000001 -0.000000 -3.348690 -0.744033 -3.116320 12.994200 -0.242716 4.980390 -91.136600 2.930580 -68.790600 5.348090 -0.000007 -0.000001 -60.528600 8.762780 -8.163450 24.328600 0.000019 0.000005 7.430830 16.749300 -24.350100 22.291600 -0.000001 0.000005 14.452400 5.156140 3.795970 12.994500 -0.242716 -4.980390 94.305300 -10.163500 -66.894700 -5.348130 -0.000001 -0.000004 -44.762300 -65.508700 -90.022700 -24.328900 0.000322 -0.000009 -3.680620 -4.130090 -41.761400 -22.291500 -0.000108 -0.000004 17.979700 5.526450 -7.639920 -2.192480 -6.469440 -0.000000 -172.406000 -6.333580 -5.814250 39.081100 -0.000007 -0.000012 -0.178887 0.347907 27.211600 40.985400 -0.000006 -0.000013 -2.164750 11.893200 -66.692800 11.754300 -0.000000 0.000003 -0.000113 -0.001139 -16.621100 -2.192510 6.469440 -0.000001 179.311000 25.641100 179.078000 -39.081100 -0.002282 -0.040193 -0.029169 0.066464 26.043400 -40.985400 0.000008 0.000006 7.925310 8.197800 -71.462300 -11.754300 -0.000006 -0.000006 -0.003242 -0.043308 -18.334500
